/* XPM */
static char *f5f30eaca0544d6caf618eb2aa2560defFjWWKlaTlLGNdgj[] = {
/* columns rows colors chars-per-pixel */
"64 64 36 1 ",
"  c #544935",
". c #5F513B",
"X c #5F513C",
"o c #61523D",
"O c #64553F",
"+ c #40612F",
"@ c #665940",
"# c #695B42",
"$ c #6B5C43",
"% c #6C5C43",
"& c #6C5D44",
"* c #705E46",
"= c #726047",
"- c #736148",
"; c #756349",
": c #77654A",
"> c #78644B",
", c #7B674D",
"< c #7C674D",
"1 c #7A684C",
"2 c #7D684E",
"3 c #7F6B50",
"4 c #806B50",
"5 c #836F53",
"6 c #846F53",
"7 c #856F54",
"8 c #857053",
"9 c #867054",
"0 c #887255",
"q c #8A7457",
"w c #8B7458",
"e c #8C7558",
"r c #8F785A",
"t c #917A5B",
"y c #917A5C",
"u c #54803E",
/* pixels */
"@@@-;-&,,,,,,,>>>> :::::@,,,,,,2> -->>,,,,>>>--  @@&2,,,,,,,,>> ",
",,,--@@,,,,,,6 66;;*::;@@@,,,,>222&&=;;,,,>4422= @@,2,,,,,,,,;;;",
",,,2-&,,>>>>>699963 *:;@@@@,>;=322& =;;****23332 @:22,,,,,,,,;**",
",,,<<&,>>>>>>499652; --,,,,,:=&222  @;*****23332 =:2,55556666;**",
"666---,>>>>>>399652, @uuuu,,:=&22  @ @    *-233  =-2,22256666:*&",
"5666;; ,;-->>,;;=:=: uu,5553 :;55++@@@  >>>;;;   &&,-,,224552;&&",
"56688: @>-====**@@#  u,,66632,,06++@@@@> >>;;;2  ##@-===**,,,;&&",
"56655  ##@   =**@@  @=,777632,,544+ @@,, 33,;,++  @@ ===**&&&&& ",
">&35   ##@@        @@uu770066,,322+ @,,, 55<;,++, @@   =**&&&&  ",
"&&#3  @999,,,>>>  @@@,uu70666,;555+ @,,9995<>2:+* @@@           ",
"&##@@@uuuuuu ,,,++@@@,,u706664=;22+ @,,9995>>-&+& @@,,,,,,,,,,,@",
"&# @@,u99960007>>++@@@,u5545322;+++ @,,555>**&++& @,,999999,,,,,",
"  @@@uu666600052>>= +@@222-22 2,+1  @>=;;;**&++&  ,9ertt  re5,,;",
"@:::$,,,,5500052>>==+ @@1,&2222>+  .&>=****&&+&  >,9erttttre5,,;",
";:::$,,,,,,22222>>&&+ @@,>=$,++++  ---:*** &&+   ,,9erttttre5-**",
";::@@,,,,2,,>>>>>>&&+ @2533;;+33@@@---O,>>+++ @@@>;50weq00,,=&&*",
"@@@@@@,,552,;;>>>>&## ,35uu6 ,,,,>=  &&o     @@@+>;&&&&>>==##&&*",
",,,,,,,7964;&==*&@@@  ,,uu00,,,,,;&&  ##@,,,,,@@+>*&&#&&&*###&&*",
",,,,,,>55 4;&##@@@@  @,,>666>,,,,>&&& @@,,,,,,,,,+*&$########&* ",
",,,006>552 oooX     @@@>>66654,,==#;; @600qq93,,,+++=# ####&&   ",
",,,006>321=&&&&@@@@@@@@ uuuu54>**&@;: @60eee95>==&=+    &&&&    ",
",,,06635;;&&&@@,,,,,@@@  55u54*&&#@,1 ,6eeee92>==&*+@@@     ++ ,",
">>>5 532&&&+$@,,,,,,,     ====*&$ #1 @,6eeee7>>=&$& @+++++++@+++",
">>>4443,&&&+@,,,,,,,>;*    ===*&$   @@,6eeq22>=###&o<<<2432#@<,+",
">>>>>>=&&&++@ ,4555,>;&#    ===&&& @@@,,566,>= ###&o<<<2432#@;,,",
">555>==%%%++@,,4555,>;&@@ @@     ,,9@@,;;>>==* ###  ,,,,,,,=@=-,",
",5543&&&&+++@,22322>>>$@@ @@@@@@5526+@@-*&&&&&&##  ,,,,,,,,=&&&,",
"@6443:&&++@+@085,>>>>=@@@ @@,,,6643,++@ *&&&&&&   ,,,tttt6,=&&&;",
"@@@    +++++,@85,>>>&#@@@ @,,,,6643>&+ @ &&&&=   @,tutytt0,;&##*",
",,:2  +++::+4@ 5>>  $#@@  ,,,,79953;&+  @      @@,,tuyytt0,=###*",
",,,,,,>>*::+4@@ -=&&$##  466667995>=++& @@@@@@@@@,,tyyyte0,&&&# ",
",6099995> @2+++@ =&&    @464457995;*++& @&,<22-#@,,0eeee,,>&&&$ ",
",4000095> @==@@+@@@@@@@@@3222556 &&++&  @&,u22-#@uu,u000,>>&&&= ",
">4000095> @@,,,+,,,@@@@@@,-===***&++*=  ,,uu,,,@@,uuu,,,,>&&&&  ",
">>00009>  @,,,,,,,,,,,,,@@-===***+&&* >,,uu,,,>> ,,>u;===&&&&&>>",
">>>>>>> 46632,,,,,,,2222,@ &====++   >,,uu00,;*&& >>;;===&& &&,,",
">>    @000u3u,,,uuu, 222,,;-        >,66u000>;&##& >;u===& &&>,,",
"    @@,000u3u,,,,,u600q00,;;*       ,,uqr006>;&##&   u    >>>,,,",
"   @@@,00uu,u,,,,,,6000qq,*&&;@@@@@@,,uer002>>#@@&        >>,++,",
",@@@@,,99996u65,,550q0009>*&&*@&&@@,,quee922>&@@@   @@@@@++++>,,",
",,@@@,,99996uuu569995,996;*&&*@++++,,00uu2>> #@@   @@@@@@+@&&==,",
",,,@@,,,,6666uu5u9995,,,>;*$$&@+42++>00002>&#@@   ,,,,,,;+&&&&==",
",,,,@,,,>>>>,u,5u9995,>>-&$$$&@+42@+ ;****#      ,,,,,,,,+&&&&&&",
",355542>>>>>>,,,,,,,,,;;*&$$$&@+42@@ &$$##     @000777755,+++%%%",
"0055542;u;>>>>,,,,,,,:;*&$$$$>@++-@@@        @@000uuu7755,,&+&%%",
"0q5552@-uuu>>>>>  >>>>===**** @++$;;--&&&=&@@@,000u770q00,,--+==",
"000-== @ ================*** +++@,,,,,,,,,--@,,99u65,5999,,;;+&&",
"008553, @ ================= +++@,,,,,,,333=&&>>>uu,559977,,;;++#",
"008542, @     ========== -  @@@,,,,,,,,666&&&>>;u;>000q66,,, *++",
":96632:: @     >>>>>>>   >>,,+@,,,,7775966&&&>>-u->0qq0,,,::=*#+",
";;;=$$$-+@@@           @,,,,,++,,,,6665966&&&> =u**5596;;;&&$##+",
";;;=$$$-+@@@@@@  o##  @765,,,,++-:&222,1::&&&  ==**5552&&&&&$##+",
"@;==$$$++733,,,@@&;;@@@765,,<>*+*;&222&& &&&    uuuu&&&&&&&&$#  ",
"@@:;+&+++999,,,,@@;>&@7996,,,>*+*  ;;;&&&&&      ==*********    ",
"@@@;+++++6666,,>>  &+@,222,>;**+*   **&&&&    @@@ =*****=    >>>",
",,@@+++>6666662;;;  @@,1::**;*++* @          @@@@@     .OO  ;>,,",
",+++>@>,,660006=&&++ @@1::**&&+&  @-**     @@@,,,>;;++@&&&@;;;,,",
",,,++;;=;;60006=& &+ @@@--**+++&  @->>>>@@@,,,,,,>;21+@@@@@--;,,",
",,,+++;=;;;25 5=&&&+> +@@@**+&&  @@&>>>>;-<,,,,,,,,222+@@@===;,,",
",,,>+++&$&&::,;;###+& @++++ >>>;2333:-::;2<,5666,,,552++@@===;,,",
">>>>++++:>%%%&&;##@+& @,,+@0+0,>2333++&=+=,,uu6666,5522+=@===,,,",
";;=>**++ >>:::&&&#@+& ,,++,000,>2333:-&&+=,,u6666663; =+====,,,,",
";;****++ 21,>:&&###+&-,,+@,000,,,, ---&&+&&> 6666663;-=+&;;>,,,,",
";;****++ 52,>:&####+ -,,+,,0092;;;;&&&&#++ >>,,66663;-&& ;>;*==="
};
