/* XPM */
static char * postava_podlaha_xpm[] = {
"64 64 191 2",
"  	c #665940",
". 	c #736148",
"+ 	c #756349",
"@ 	c #726148",
"# 	c #6C5D44",
"$ 	c #7B674D",
"% 	c #78644B",
"& 	c #544935",
"* 	c #77644B",
"= 	c #7C684E",
"- 	c #78654B",
"; 	c #79654B",
"> 	c #7A654B",
", 	c #6D5E45",
"' 	c #846E52",
") 	c #846F53",
"! 	c #77634A",
"~ 	c #715F47",
"{ 	c #7A674D",
"] 	c #7E6A4F",
"^ 	c #6F5E45",
"/ 	c #6C5C44",
"( 	c #716047",
"_ 	c #806B50",
": 	c #816B51",
"< 	c #726047",
"[ 	c #7A664C",
"} 	c #7F694F",
"| 	c #766249",
"1 	c #756249",
"2 	c #7D684E",
"3 	c #6F5F45",
"4 	c #867054",
"5 	c #7F6B50",
"6 	c #705E46",
"7 	c #77644A",
"8 	c #7D6A4E",
"9 	c #746249",
"0 	c #715F46",
"a 	c #7F6A4F",
"b 	c #7F6B4F",
"c 	c #7C674D",
"d 	c #826C52",
"e 	c #766349",
"f 	c #736248",
"g 	c #76644A",
"h 	c #6D5D45",
"i 	c #7E6A4E",
"j 	c #7D694E",
"k 	c #706046",
"l 	c #7E694F",
"m 	c #816C50",
"n 	c #816C51",
"o 	c #846E53",
"p 	c #826D52",
"q 	c #54803E",
"r 	c #7E6B4F",
"s 	c #7E694E",
"t 	c #76654A",
"u 	c #6E5D45",
"v 	c #826C51",
"w 	c #79654C",
"x 	c #76634A",
"y 	c #736149",
"z 	c #7B674E",
"A 	c #766549",
"B 	c #7F6A50",
"C 	c #40612F",
"D 	c #7A674C",
"E 	c #6E5E45",
"F 	c #857053",
"G 	c #77654A",
"H 	c #675940",
"I 	c #655840",
"J 	c #685941",
"K 	c #887254",
"L 	c #76624A",
"M 	c #685A41",
"N 	c #726048",
"O 	c #79674C",
"P 	c #836F53",
"Q 	c #695B42",
"R 	c #706047",
"S 	c #856F54",
"T 	c #836D52",
"U 	c #806B51",
"V 	c #8A7357",
"W 	c #897356",
"X 	c #7C674E",
"Y 	c #6A5B42",
"Z 	c #877154",
"` 	c #857054",
" .	c #DBDBE2",
"..	c #8A8A8F",
"+.	c #6B5B43",
"@.	c #887255",
"#.	c #705F46",
"$.	c #856F53",
"%.	c #B6B6B6",
"&.	c #6D5D44",
"*.	c #8E7759",
"=.	c #8F785A",
"-.	c #90785A",
";.	c #8F7859",
">.	c #8C7558",
",.	c #806C50",
"'.	c #6B5C43",
").	c #53535A",
"!.	c #65553F",
"~.	c #826D51",
"{.	c #8B7458",
"].	c #8B7457",
"^.	c #897256",
"/.	c #816D51",
"(.	c #685940",
"_.	c #EFC193",
":.	c #60523C",
"<.	c #746248",
"[.	c #695A42",
"}.	c #665840",
"|.	c #301C19",
"1.	c #836D53",
"2.	c #BC8356",
"3.	c #633724",
"4.	c #6A5B43",
"5.	c #806C51",
"6.	c #62533D",
"7.	c #61523D",
"8.	c #5F513C",
"9.	c #887256",
"0.	c #8A7457",
"a.	c #7B684E",
"b.	c #4CB528",
"c.	c #766449",
"d.	c #7B694E",
"e.	c #8D7659",
"f.	c #6A5C43",
"g.	c #8B7557",
"h.	c #61533D",
"i.	c #806A50",
"j.	c #524238",
"k.	c #AB9A6E",
"l.	c #6C5C43",
"m.	c #725F47",
"n.	c #766A55",
"o.	c #6F5F46",
"p.	c #91795B",
"q.	c #90795A",
"r.	c #917A5C",
"s.	c #917A5B",
"t.	c #6D5E44",
"u.	c #8F7759",
"v.	c #846D52",
"w.	c #8A7356",
"x.	c #877054",
"y.	c #877055",
"z.	c #8F4F34",
"A.	c #887155",
"B.	c #877155",
"C.	c #4B2F25",
"D.	c #673D31",
"E.	c #C8BCB4",
"F.	c #8B6B1C",
"G.	c #7D694F",
"H.	c #F1C146",
"I.	c #5A440D",
"J.	c #34343A",
"K.	c #007DFF",
"L.	c #726147",
"M.	c #F1F1F1",
"N.	c #6C5D43",
"O.	c #79664C",
"P.	c #77654B",
"Q.	c #76644B",
"R.	c #836E53",
"S.	c #867154",
"T.	c #6B5A43",
"U.	c #78664C",
"V.	c #7A684D",
"W.	c #7F6950",
"X.	c #7F7873",
"Y.	c #6F5E46",
"Z.	c #9C604C",
"`.	c #5F513B",
" +	c #64553F",
".+	c #7C694E",
"++	c #78664B",
"@+	c #685A42",
"#+	c #76654B",
"$+	c #77664B",
"%+	c #736048",
"      . + @ # $ $ $ $ $ $ $ % % % % & * * * * *   $ $ $ $ $ $ = - & . . ; > $ $ $ $ % % % . . & &     , = $ $ $ $ $ $ $ $ % % & ",
"$ $ $ . .     $ $ $ $ $ $ ' & ) ) ! ! ~ * * +       { { { $ % ] ] ] ^ / ( + + $ $ $ % _ : ] ] < &     [ } $ $ $ $ $ $ $ $ | 1 1 ",
"$ $ $ 2 @ 3 $ $ % % % % % ' 4 4 4 ) 5 & 6 7 +         [ % + < 5 8 8 ^ & ( 1 9 ~ ~ 0 0 a 5 5 5 b &   * } } $ $ $ $ $ $ $ $ | 0 0 ",
"$ $ $ c c 3 $ % % % % % % _ 4 4 ) d = e & f f $ $ $ { [ g ( h i i i & &   1 ~ ~ ~ 0 0 j 5 5 5 b & k * l $ m m m n o ) ) ) | 0 0 ",
"' ' ' @ @ @ $ % % % % % % 5 4 4 o p = $ &   q q q q $ [ g ( h b b & &   &   & & & & 0 . r 5 5 & & k . 2 $ s s s n o ) ) ) t ~ u ",
"v ) ) o e e & w x y y % % z x x < g < A & q q $ v v v B & g + n n C C       & & % % % | | | & & & , , [ @ D D s l : n n i 9 E h ",
"v ) ) F F G &   - @ < < < < 0 6 H I J & & q $ $ o o o B = $ $ K ) C C         % & % % L 1 9 = & & M M   N < < < 0 6 $ $ O 9 E h ",
"v ) ) P P & & Q Q   & & & < 0 6 H I & &   R $ S S S o B = $ $ T U U C &     $ $ & B B $ 1 $ C C & &     & < < < 0 6 u h / / / & ",
"% ^ 5 P & & & Q Q     & & & & & & & &     q q S S V W o o $ $ 5 ] ] C &   $ $ $ & T T X 1 $ C C { &     & & & < 0 6 u h / / & & ",
"^ ^ Y 5 & &   Z 4 ` $ $ $ % % % & &       $ q q S V  . . . . . . ...C &   $ $ 4 4 4 T X % s G C 6 &       & & & & & & & & & & & ",
"^ +.Y       q q q q q q & $ $ $ C C       $ $ q S  . . . . . . .....C &   $ $ 4 4 4 T % % . h C u &     $ $ $ $ $ $ $ $ $ $ $   ",
"h +.&     $ q 4 4 ` o @.@.@.S % % C C       $ q  . . . . . . ..... . . .  $ $ T T T % #.#./ C C u &   $ $ 4 Z Z Z 4 4 $ $ $ $ [ ",
"& &       q q $.$.$.o @.@.@.d a % % < & C     %. . . . . . .%. . . . . . .; < 1 1 1 0 #.&.C C h & & $ 4 *.=.-.-.& & ;.>.,.$ $ x ",
"  7 7 7 '.$ $ $ $ T T @.@.@.d a % % < < C & ).%.%.%. . . . . . . . . .%.....< ~ 0 0 0 h &.C / & & % $ 4 *.=.-.-.-.-.;.>.,.$ $ + ",
"+ 7 7 7 '.$ $ $ $ $ $ 2 2 a a a % % ^ ^ C & ).).%.%.%.%. . . . . . . . .%...7 ~ 0 0 & h &.C & & & $ $ 4 *.=.-.-.-.-.;.>.,.f #.#.",
"+ 7 7     $ $ $ $ = w w % % % % % % ^ &.C &   ).%.%.%.%.%. . . . . . . . ...!.[ % % C C C &       % 9 ~.W {.>.].V ^.$ [ < &.&.6 ",
"            $ $ T /.] w L L % % % % u (.(.& $ ).%.%.%....._._._._. . . . ...3 :.& & & & &       C % <.h &.&.^ % % < < [.Y / &.6 ",
"$ $ $ $ $ $ $ S 4 o U + ^ < < 0 / }.}.  & & |....._....._._._._._._...). ...Q Q   $ $ $ $ $     C % 0 &./ +.h h h 0 [.[.Q / &.6 ",
"$ $ $ $ $ $ % d 1.& U 9 h [.J H   }.}.& &   |....._.....2.3.3._._.3...).).).    $ $ $ $ $ $ $ $ $ C 0 / '.4.Q [.[.[.[.[.Q &.#.& ",
"$ $ $ @.@.$.; n 5.b & 6.6.7.8.& & & & &     |...|......._. .3._._. .).).+ &   o 9.W 0.0.4 5 $ [ [ C C C < 4.& [.[.[.[./ / & & & ",
"$ $ $ @.@.$.; 5 = a.< E E , #               |.|.|.|.|._._. .b._._. .).+ c.&   ) ^.*.*.*.4 5 % < < h < C & & & & h &./ / & & & & ",
"$ $ $ @.$.$.5 T x e h E E     $ $ $ $ $       & |.|.|.2._._._._._._.).z d.& $ ) e.*.*.*.4 = % < < / 6 C       & & & & & C C & $ ",
"% % % T & T 5 a / / / C f.  $ $ $ $ $ $ $ & & & & |.3.3.2._._._._.& (.d.&   $ ) e.*.*.*.S % % < / '.^ &   C C C C C C C   C C C ",
"% % % : : : 5 $ / / / C   $ $ $ $ $ $ $ % x #.& & & |.|.2.2.2.3.'.& & &     $ ) e.e.g.2 2 % < [.[.[.h h.c X X l i.B l Y   $ $ C ",
"% % % % % % < / / / C C   & $ _ ~.~.~.$ % x ^ M & j.k.k.k._._.2.k.j.&       $ $ T o o [ % < & [.[.[.h h.c X X l i.B l Y   x $ $ ",
"% v v v % < < l.l.l.C C   $ $ _ ~.~.~.$ % x /   j.k.k.k.k.k._._.2.k.j.Z     [ x x % % < < m.& [.[.[.& & $ $ $ $ $ $ $ (   R . $ ",
"z v T _ 5 / / / / C C C   $ = l 5 a a % % % '.j.k.k.k.k.k.k.k.n.n.k.k.j.C     . ~ u h h h h / Y Y & & $ $ $ $ $ $ $ $ k o.o.o.$ ",
"  ) _ _ 5 G / / C C   C   @.F p w % % % % < n.k.k.k.k.j.k.k.k.k.k.k.k.j.C C   & ~ u h h h h / & & & $ $ $ -.-.p.p.o $ k , , , <.",
"      & & & & C C C C C $   F p w % % % j.j.n.n.k.k.k.j.n.k.k.k.k.k.k.j.o.C &   & u h h h < & & &   $ q.q p.r.s.s.@.$ + t.Y Y 0 ",
"$ [ g a & & C C C * * C i.  & p % % & & j.k.k.k.n.k.j.|.|.n.k.k.k.k.k.|.h C & &   & & & & & &     $ $ q.q r.r.s.s.@.$ R Q Q Y 0 ",
"$ $ $ $ $ $ % % ~ * * C i.    & N < ^ u j.j.k.k.k.j.|.|.|.j.j.n.n.n.|.|.C C h &                   $ $ q.r.r.r.s.u.@.$ h h h 4.& ",
"$ v.w.x.y.y.y.1.% &   } C C C   & < ^ u j.2._._.z._ |.|.|.j.n.n.n.n.|.|.|.C h &   o.[ c } } . M   $ $ ^.*.u.e.>.$ $ % h h h '.& ",
"$ _ A.A.A.A.B.1.% &   ( (     C         z._._._.z.B b C.C.D.D.D.E.E.D.|.|.h & &   o.[ q } } . M   q q $ q W W ^.$ % % h h h < & ",
"% _ A.A.A.A.B.1.% &     $ $ $ C $ $ $   z._._.2.z.[ . C.C.D.D.D.E.D.D.|.|.< & & $ $ q q $ $ $     $ q q q $ $ $ $ % h h h h & & ",
"% % A.A.A.A.B.% & &   $ $ $ $ $ $ $ $ $ z._._.z.    . F.F.D.D.D.E.E.D.j.|.|.% $ $ q q $ $ $ % % & $ $ % q 9 < < < h h h h h % % ",
"% % % % % % % & _ v.v.B G.$ $ $ $ $ $ F.F._._.z.[   F.H.F.n.n.n.n.n.n.n.|.|.|.$ q q ^.K $ | 6 ^ ^ & % % x 9 < < < h h & h h $ $ ",
"% % & & & &   @.@.@.q B q $ $ $ q q F.H.H._._._._.F.H.H.F.n.n.n.n.n.n.n.|.|.|.v.q ^.^.K % | ^ [.[.h & % x q < < < h & h h % $ $ ",
"& & & &     $ @.@.@.q B q $ $ $ $ $ q F.H._._._._.I.H.H.J.J.n.n.n.n.n.n.|.|.|.g.=.^.^.) % | u M J / & & & q & & & & % % % $ $ $ ",
"& & &       $ @.@.q q $ q $ $ $ $ $ $ F.F._._._.I.I.K.K.....J.J.J.j.j.j.|.|.|.>.;.@.@.2 % % J H H / & & & & & & & & % % $ C C $ ",
"$         $ $ Z Z Z Z $.q ' n $ $ T T @.].z.z.z.I.I.K.K...........J.J.J.|.g.q >.>.4 2 2 % u H H H & & &           C C C C ; $ $ ",
"$ $       $ $ Z Z Z Z $.q q q T o Z Z Z ~.$ Z Z F.H.H.F.).).)...........J.J.J.q q a % % & M H H & & &             C   t.t.k L.$ ",
"$ $ $     $ $ $ $ $.$.$.o q q T q Z Z Z ~.$ $ $ F.H.H.F.).).).).).).......%.%.).).).% ^ [.    & & & $ $ $ $ $ $ 9 C &.&.&.&.L.L.",
"$ $ $ $   $ $ $ % % % % $ q $ T q Z Z Z m { ; % F.H.F.F.J.J.J.).).).).).).%.%.%.%.%.).).).& & & & $ $ $ $ $ $ $ $ C &.&.&.# # # ",
"$ 5 ~.~.~._ j % % % % % % $ $ $ $ $ $ $ $ { | 1 F.F.F.D.D.|.|.J.J.J.).).).).)...%.%.%.M.M.......^.^.@.S S S S ~.,.$ C C C l.N.N.",
"@.w.~.~.~._ j x q x % % % % $ $ $ $ $ $ $ * | #.|.D.D.D.|.% |.C.C.C.J.J.J.).).).).)...M.M.M.M.M.....q q q S S ~.,.$ $ E C , N.N.",
"@.0.~.m m }   . q q q % % % % % & & % % % % < |.C.D.D.D.|.& |.C.C.C.|.<.f J.J.J.).).).).)...M.M.M.M.....S ^.].^.@.$ $ f f C R R ",
"@.@.@.@ < < &   & < < < < < < < < < < < < < < |.D.D.D.|.& C |.C.C.C.|.$ $ $ $ $ J.J.J.).).).).)...M.M.....T Z Z Z $ $ 9 <.C &.&.",
"@.@.F T ,.5 O.&   & < < < < < < < < < < < < < |.D.D.D.|.C C |.C.C.|.$ $ $ $ $ B B B ( J.J.J.).).)...M.M...Z Z S S $ $ 9 <.C C [.",
"K K F T _ b O.&   & & & & & < < < < < < < < < |.D.D.C.|.    C.C.C.|.$ $ $ $ $ $.$.$.h h h % J.J.J.J.J...@.@.0.o o $ [ [ & 0 C C ",
"g 4 $.$.5 b P.* &   & & & & & % % % % % % % & |.D.D.|.$ $ |.C.C.C.|.$ S S S T ` $.$.h h h % % N q N % A.].].9.$ $ $ Q.Q.( ~ [.C ",
"x + + < '.'.'.N C       & & & & & & & & & & |.C.D.D.|.$ $ |.C.C.|.$ $ o o o T ` $.$.h h h % & < q 0 0 R.R.S.) <.9 1 / / '.+.[.C ",
"x + + < '.'.'.N C             & & :.T.T.& & |.C.D.D.|.$ $ |.C.C.|.* h r r r U.V.g g h h h & & < < 0 0 R.R.R.b / / / / / '.+.[.C ",
"  + L.( '.'.'.C C S W.W.$ $ $     &.+ +     |.D.D.C.|.$ $ |.C.C.|.9 h r r r h h & h h h & & & & q q q q / / / / / / / / '.+.& & ",
"    * e C ^ C C C 4 4 4 $ $ $ $     + - ,   |.D.D.|.$ $ $ |.C.C.|.& & + + + h h h h h & & & & & & < < ~ 0 #.#.#.#.#.#.#.& & & & ",
"      e C C C C C ' ' ' ' $ $ % % & & , C C.E.E.D.|.$ % 9 |.C.X.X.|.& & 0 #.Y.^ ^ h & & & &       & < ~ 0 #.#.#.< & & & & % % % ",
"$ $     C C C % v.' ' ' ' ' a x x x & & D.Z.Z.Z.Z.D.#.#.9 |.D.D.D.D.|.& & & & & & & & & &           & & & & & `. + +& & 1 % $ $ ",
"$ C C C ;   ; [ [ v.' @.@.@.o < u u C D.Z.Z.Z.Z.Z.D.6 6 Y.|.D.D.D.D.D.|.m.m.& & & & &       $ $ $ ; + 9 C C   # o.o.  <.<.<.$ $ ",
"$ $ $ C C + + ( + + ' @.@.@.o < h & h C &       f f 6 6 C C C Y.& &   . - - - -       $ $ $ $ $ $ ; + .+d.C           . . <.$ $ ",
"$ $ $ C C C + R 9 <.<.] T & T < h &.&.C % & C       6 6 C Y.Y.& &     , - - - - x f c $ $ $ $ $ $ $ $ j G..+C       ( ( L.<.$ $ ",
"$ $ $ % C C C o.'.t.t.g * { <.9 [.[.J C ^ &   C C C C & % % % | j 5 5 5 g f 7 7 x 2 c $ ,.) ) ) $ $ $ ~.~..+C C     k ( L.<.$ $ ",
"; ; % % C C C C P.++N.N.N.o.o.9 [.@+H C / &   w w C   K C K $ ; j 5 5 5 C C t.( C ( $ $ q q ) ) ) ) $ ~.~..+.+C k   k ( L.$ $ $ ",
"+ + < % ~ ~ C C & ++++#+t $+o.o.&.[.H C / & O.O.C C $ 9.9.9.$ ; j 5 5 5 g f t.&.C ( [ $ q ) ) ) ) ) v.5 e & L.C k ( ( L.$ $ $ $ ",
"+ 9 ~ ~ ~ ~ C C & ] V.O.++P., t.Y M J C / %+O.O.C   $ 9.9.9.$ $ $ $ & f f f t.&.C &.h % & ) ) ) ) ) v.5 9 f L.C h 1 1 % $ $ $ $ ",
"+ 9 ~ ~ ~ ~ C C & T G.O ++P., Y Y M J C & %+w w C $ $ @.@.S.] + + + + o.o.o.o.M C C & % % $ $ o o o v.5 9 f ^ u & ! % 1 6 L.L.L."};
