/* XPM */
static char * klic_xpm[] = {
"64 64 420 2",
"  	c #665940",
". 	c #736148",
"+ 	c #756349",
"@ 	c #726148",
"# 	c #6C5D44",
"$ 	c #7B674D",
"% 	c #78644B",
"& 	c #544935",
"* 	c #77644B",
"= 	c #7C684E",
"- 	c #78654B",
"; 	c #79654B",
"> 	c #7A654B",
", 	c #6D5E45",
"' 	c #846E52",
") 	c #846F53",
"! 	c #77634A",
"~ 	c #715F47",
"{ 	c #7A674D",
"] 	c #7E6A4F",
"^ 	c #6F5E45",
"/ 	c #6C5C44",
"( 	c #716047",
"_ 	c #806B50",
": 	c #816B51",
"< 	c #726047",
"[ 	c #7A664C",
"} 	c #7F694F",
"| 	c #766249",
"1 	c #756249",
"2 	c #7D684E",
"3 	c #6F5F45",
"4 	c #867054",
"5 	c #7F6B50",
"6 	c #705E46",
"7 	c #77644A",
"8 	c #7D6A4E",
"9 	c #746249",
"0 	c #715F46",
"a 	c #7F6A4F",
"b 	c #7F6B4F",
"c 	c #7C674D",
"d 	c #826C52",
"e 	c #766349",
"f 	c #736248",
"g 	c #76644A",
"h 	c #6D5D45",
"i 	c #7E6A4E",
"j 	c #7D694E",
"k 	c #706046",
"l 	c #7E694F",
"m 	c #816C50",
"n 	c #816C51",
"o 	c #846E53",
"p 	c #826D52",
"q 	c #54803E",
"r 	c #7E6B4F",
"s 	c #7E694E",
"t 	c #76654A",
"u 	c #6E5D45",
"v 	c #826C51",
"w 	c #79654C",
"x 	c #76634A",
"y 	c #736149",
"z 	c #7B674E",
"A 	c #766549",
"B 	c #7F6A50",
"C 	c #40612F",
"D 	c #7A674C",
"E 	c #6E5E45",
"F 	c #857053",
"G 	c #77654A",
"H 	c #675940",
"I 	c #655840",
"J 	c #685941",
"K 	c #887254",
"L 	c #76624A",
"M 	c #685A41",
"N 	c #726048",
"O 	c #79674C",
"P 	c #836F53",
"Q 	c #695B42",
"R 	c #706047",
"S 	c #856F54",
"T 	c #836D52",
"U 	c #806B51",
"V 	c #8A7357",
"W 	c #897356",
"X 	c #7C674E",
"Y 	c #6A5B42",
"Z 	c #877154",
"` 	c #857054",
" .	c #816D51",
"..	c #6B5B43",
"+.	c #887255",
"@.	c #826D51",
"#.	c #7C694E",
"$.	c #705F46",
"%.	c #856F53",
"&.	c #7B684E",
"*.	c #6D5D44",
"=.	c #8E7759",
"-.	c #8F785A",
";.	c #90785A",
">.	c #8F7859",
",.	c #8C7558",
"'.	c #806C50",
").	c #6B5C43",
"!.	c #7A684C",
"~.	c #78664B",
"{.	c #5E513B",
"].	c #79664B",
"^.	c #726147",
"/.	c #65553F",
"(.	c #8B7458",
"_.	c #8B7457",
":.	c #897256",
"<.	c #685940",
"[.	c #60523C",
"}.	c #746248",
"|.	c #695A42",
"1.	c #665840",
"2.	c #836D53",
"3.	c #6A5B43",
"4.	c #806C51",
"5.	c #62533D",
"6.	c #61523D",
"7.	c #5F513C",
"8.	c #887256",
"9.	c #8A7457",
"0.	c #766449",
"a.	c #836E53",
"b.	c #725F47",
"c.	c #7B694E",
"d.	c #8D7659",
"e.	c #6A5C43",
"f.	c #8B7557",
"g.	c #61533D",
"h.	c #806A50",
"i.	c #6C5C43",
"j.	c #FFFFFF",
"k.	c #6F5F46",
"l.	c #DBC164",
"m.	c #E4CD76",
"n.	c #E8D382",
"o.	c #EBD789",
"p.	c #EDD88F",
"q.	c #E9D383",
"r.	c #E6CD7A",
"s.	c #E4C973",
"t.	c #91795B",
"u.	c #D4B551",
"v.	c #DDC465",
"w.	c #E3CA6F",
"x.	c #E4CE7A",
"y.	c #E8D585",
"z.	c #EFDB94",
"A.	c #EFDC97",
"B.	c #EEDB91",
"C.	c #EBD689",
"D.	c #E7CF80",
"E.	c #E3C973",
"F.	c #E1C369",
"G.	c #E0C26B",
"H.	c #90795A",
"I.	c #917A5C",
"J.	c #917A5B",
"K.	c #6D5E44",
"L.	c #C8A345",
"M.	c #D1B14F",
"N.	c #D8BB5B",
"O.	c #DFC36A",
"P.	c #B46D1C",
"Q.	c #BC7725",
"R.	c #E9D486",
"S.	c #ECD78D",
"T.	c #ECD88C",
"U.	c #E7D181",
"V.	c #B06C18",
"W.	c #A86211",
"X.	c #DCBD63",
"Y.	c #DBB95F",
"Z.	c #DCBC64",
"`.	c #846D52",
" +	c #9F6211",
".+	c #C49F43",
"++	c #CDAA4A",
"@+	c #D1B154",
"#+	c #A96116",
"$+	c #A9651A",
"%+	c #B16F20",
"&+	c #BE7D2B",
"*+	c #E1C86D",
"=+	c #E8D082",
"-+	c #9A570E",
";+	c #9B550D",
">+	c #D7B55B",
",+	c #DAB963",
"'+	c #8F7759",
")+	c #8A7356",
"!+	c #877054",
"~+	c #877055",
"{+	c #995C0E",
"]+	c #BF983C",
"^+	c #C59E44",
"/+	c #CCA84C",
"(+	c #9D5914",
"_+	c #B37626",
":+	c #BF7F29",
"<+	c #95540A",
"[+	c #D5B258",
"}+	c #D9B861",
"|+	c #887155",
"1+	c #877155",
"2+	c #8F540B",
"3+	c #90540B",
"4+	c #BE943D",
"5+	c #C59F45",
"6+	c #D5B259",
"7+	c #D6B357",
"8+	c #D9B761",
"9+	c #844B08",
"0+	c #884F0A",
"a+	c #B68B37",
"b+	c #C19941",
"c+	c #C19B40",
"d+	c #D7B55C",
"e+	c #D8B85E",
"f+	c #DCBD67",
"g+	c #814807",
"h+	c #804707",
"i+	c #8C4F08",
"j+	c #C19B3D",
"k+	c #C7A03E",
"l+	c #A66113",
"m+	c #DABB63",
"n+	c #DDC06B",
"o+	c #E1C46F",
"p+	c #7D694F",
"q+	c #7C684D",
"r+	c #814704",
"s+	c #884A05",
"t+	c #9F5D0E",
"u+	c #C89F3D",
"v+	c #DBBE5E",
"w+	c #E0C160",
"x+	c #AA6717",
"y+	c #E4C978",
"z+	c #E7CF81",
"A+	c #8F4F09",
"B+	c #C19A3A",
"C+	c #DFC363",
"D+	c #EED986",
"E+	c #EDD683",
"F+	c #CDA13B",
"G+	c #B8711B",
"H+	c #EDD78E",
"I+	c #EDD992",
"J+	c #887356",
"K+	c #7F4402",
"L+	c #A57021",
"M+	c #D8B758",
"N+	c #F0DB90",
"O+	c #F0DF93",
"P+	c #E3CB6A",
"Q+	c #CDA03B",
"R+	c #D4B150",
"S+	c #C17A20",
"T+	c #EFDB93",
"U+	c #F0DF9B",
"V+	c #804503",
"W+	c #9B5D11",
"X+	c #E6CA75",
"Y+	c #F0DB8E",
"Z+	c #EBD67B",
"`+	c #D0B148",
" @	c #AB600D",
".@	c #D4B350",
"+@	c #D8B858",
"@@	c #BB741F",
"#@	c #C07920",
"$@	c #F0DF98",
"%@	c #F0E19C",
"&@	c #90560C",
"*@	c #98560B",
"=@	c #B26913",
"-@	c #ECD384",
";@	c #C9A644",
">@	c #AC7720",
",@	c #9E580D",
"'@	c #D0AD4F",
")@	c #DBBE5C",
"!@	c #E3C96D",
"~@	c #EBD684",
"{@	c #EEDC91",
"]@	c #F0DF97",
"^@	c #975B0D",
"/@	c #BE9232",
"(@	c #CFAA4D",
"_@	c #A76914",
":@	c #A05E0F",
"<@	c #9A590C",
"[@	c #99540C",
"}@	c #A45D10",
"|@	c #DDC062",
"1@	c #E5CF71",
"2@	c #ECD885",
"3@	c #EFDC90",
"4@	c #F0DF94",
"5@	c #A96C17",
"6@	c #CFAB49",
"7@	c #E3C46A",
"8@	c #D6B559",
"9@	c #A46B19",
"0@	c #B56A16",
"a@	c #DDC256",
"b@	c #E3CB63",
"c@	c #B06E15",
"d@	c #DABC56",
"e@	c #ECD579",
"f@	c #E3C96E",
"g@	c #BC912F",
"h@	c #A9620B",
"i@	c #DABD5B",
"j@	c #ECD57D",
"k@	c #E9D078",
"l@	c #C39938",
"m@	c #6C5D43",
"n@	c #A15C07",
"o@	c #D7B755",
"p@	c #EED883",
"q@	c #ECD581",
"r@	c #C9A13D",
"s@	c #935203",
"t@	c #D5B453",
"u@	c #ECD47D",
"v@	c #EDD581",
"w@	c #C99D38",
"x@	c #8D4D04",
"y@	c #C5A13F",
"z@	c #E5CC74",
"A@	c #E9D07A",
"B@	c #BE8524",
"C@	c #79664C",
"D@	c #864902",
"E@	c #BD9234",
"F@	c #E0C267",
"G@	c #E5CA71",
"H@	c #BE8827",
"I@	c #C19232",
"J@	c #814804",
"K@	c #B68830",
"L@	c #BC8124",
"M@	c #D9B957",
"N@	c #CB9F37",
"O@	c #77654B",
"P@	c #784001",
"Q@	c #A36D1D",
"R@	c #CDA74A",
"S@	c #D3B253",
"T@	c #B48224",
"U@	c #CFB04F",
"V@	c #DDBF5B",
"W@	c #E4C963",
"X@	c #EBD47D",
"Y@	c #C18C27",
"Z@	c #76644B",
"`@	c #753E00",
" #	c #955E15",
".#	c #C2973D",
"+#	c #CAA449",
"@#	c #9F6414",
"##	c #C49D41",
"$#	c #D4B34F",
"%#	c #E0C45E",
"&#	c #ECD47B",
"*#	c #D1AC3D",
"=#	c #C18D2B",
"-#	c #867154",
";#	c #733D00",
">#	c #8D5611",
",#	c #B28230",
"'#	c #BD913C",
")#	c #945B0F",
"!#	c #B78E37",
"~#	c #C5A041",
"{#	c #E6CB73",
"]#	c #C38823",
"^#	c #78664C",
"/#	c #7A684D",
"(#	c #7F6950",
"_#	c #754002",
":#	c #9B681D",
"<#	c #AF8130",
"[#	c #89510C",
"}#	c #A97929",
"|#	c #B68D33",
"1#	c #C49E3F",
"2#	c #DDBF68",
"3#	c #B57C20",
"4#	c #7A4707",
"5#	c #794504",
"6#	c #7C4805",
"7#	c #86510A",
"8#	c #B1852F",
"9#	c #CEAC54",
"0#	c #9C5B0A",
"a#	c #8B550C",
"b#	c #C9A551",
"c#	c #884F04",
"d#	c #6F5E46",
"e#	c #7F4905",
"f#	c #7C4803",
"g#	c #5F513B",
"h#	c #64553F",
"i#	c #7B684D",
"j#	c #685A42",
"k#	c #76654B",
"l#	c #77664B",
"m#	c #736048",
"      . + @ # $ $ $ $ $ $ $ % % % % & * * * * *   $ $ $ $ $ $ = - & . . ; > $ $ $ $ % % % . . & &     , = $ $ $ $ $ $ $ $ % % & ",
"$ $ $ . .     $ $ $ $ $ $ ' & ) ) ! ! ~ * * +       { { { $ % ] ] ] ^ / ( + + $ $ $ % _ : ] ] < &     [ } $ $ $ $ $ $ $ $ | 1 1 ",
"$ $ $ 2 @ 3 $ $ % % % % % ' 4 4 4 ) 5 & 6 7 +         [ % + < 5 8 8 ^ & ( 1 9 ~ ~ 0 0 a 5 5 5 b &   * } } $ $ $ $ $ $ $ $ | 0 0 ",
"$ $ $ c c 3 $ % % % % % % _ 4 4 ) d = e & f f $ $ $ { [ g ( h i i i & &   1 ~ ~ ~ 0 0 j 5 5 5 b & k * l $ m m m n o ) ) ) | 0 0 ",
"' ' ' @ @ @ $ % % % % % % 5 4 4 o p = $ &   q q q q $ [ g ( h b b & &   &   & & & & 0 . r 5 5 & & k . 2 $ s s s n o ) ) ) t ~ u ",
"v ) ) o e e & w x y y % % z x x < g < A & q q $ v v v B & g + n n C C       & & % % % | | | & & & , , [ @ D D s l : n n i 9 E h ",
"v ) ) F F G &   - @ < < < < 0 6 H I J & & q $ $ o o o B = $ $ K ) C C         % & % % L 1 9 = & & M M   N < < < 0 6 $ $ O 9 E h ",
"v ) ) P P & & Q Q   & & & < 0 6 H I & &   R $ S S S o B = $ $ T U U C &     $ $ & B B $ 1 $ C C & &     & < < < 0 6 u h / / / & ",
"% ^ 5 P & & & Q Q     & & & & & & & &     q q S S V W o o $ $ 5 ] ] C &   $ $ $ & T T X 1 $ C C { &     & & & < 0 6 u h / / & & ",
"^ ^ Y 5 & &   Z 4 ` $ $ $ % % % & &       $ q q S V o o o $ e  . . .C &   $ $ 4 4 4 T X % s G C 6 &       & & & & & & & & & & & ",
"^ ..Y       q q q q q q & $ $ $ C C       $ $ q S V o o o _ < + r b C &   $ $ 4 4 4 T % % . h C u &     $ $ $ $ $ $ $ $ $ $ $   ",
"h ..&     $ q 4 4 ` o +.+.+.S % % C C       $ q @.@.: p 5 b #.+ C C C &   $ $ T T T % $.$./ C C u &   $ $ 4 Z Z Z 4 4 $ $ $ $ [ ",
"& &       q q %.%.%.o +.+.+.d a % % < & C     l j j . j #.& #.O C &.& &   ; < 1 1 1 0 $.*.C C h & & $ 4 =.-.;.;.& & >.,.'.$ $ x ",
"  7 7 7 ).$ $ $ $ T T +.+.+.d a % % < < C &     !.D ^ j #.#.#.~.C & & {.# ; < ~ 0 0 0 h *.C / & & % $ 4 =.-.;.;.;.;.>.,.'.$ $ + ",
"+ 7 7 7 ).$ $ $ $ $ $ 2 2 a a a % % ^ ^ C &     D ].^.).{ C C C C & & @ . . 7 ~ 0 0 & h *.C & & & $ $ 4 =.-.;.;.;.;.>.,.'.f $.$.",
"+ 7 7     $ $ $ $ = w w % % % % % % ^ *.C &   l '.5 B 9 9 C B B       @ . . /.[ % % C C C &       % 9 @.W (.,._.V :.$ [ < *.*.6 ",
"            $ $ T  .] w L L % % % % u <.<.& $ B T q q ) & $ $ $ $ ; < & & 3 3 [.& & & & &       C % }.h *.*.^ % % < < |.Y / *.6 ",
"$ $ $ $ $ $ $ S 4 o U + ^ < < 0 / 1.1.  & & $ $ q q K K $ $ $ $ $ | h h & & Q Q   $ $ $ $ $     C % 0 *./ ..h h h 0 |.|.Q / *.6 ",
"$ $ $ $ $ $ % d 2.& U 9 h |.J H   1.1.& &   $ $ % %.%.%.% $ $ $ $ % / / / &     $ $ $ $ $ $ $ $ $ C 0 / ).3.Q |.|.|.|.|.Q *.$.& ",
"$ $ $ +.+.%.; n 4.b & 5.5.6.7.& & & & &       % % %.%.%.2._ $ $ < < J 9 + &   o 8.W 9.9.4 5 $ [ [ C C C < 3.& |.|.|.|./ / & & & ",
"$ $ $ +.+.%.; 5 = &.< E E , #                 & q q q q 2._ % ~ ~ *.H + 0.&   ) :.=.=.=.4 5 % < < h < C & & & & h *./ / & & & & ",
"$ $ $ +.%.%.5 T x e h E E     $ $ $ $ $       & & a.a.q 2._ b.^ h |.H z c.& $ ) d.=.=.=.4 = % < < / 6 C       & & & & & C C & $ ",
"% % % T & T 5 a / / / C e.  $ $ $ $ $ $ $ & & & & & < < < < b.u ).& <.c.&   $ ) d.=.=.=.S % % < / ).^ &   C C C C C C C   C C C ",
"% % % : : : 5 $ / / / C   $ $ $ $ $ $ $ % x $.& & & & < < < b.u ).& & &     $ ) d.d.f.2 2 % < |.|.|.h g.c X X l h.B l Y   $ $ C ",
"% % % % % % < / / / C C   & $ _ @.@.@.$ % x ^ M & & & & < < < u ^ / &       $ $ T o o [ % < & |.|.|.h g.c X X l h.B l Y   x $ $ ",
"% v v v % < < i.i.i.C C   $ $ _ @.@.@.$ % x /     &     & & & & & [ $ Z     [ x x % % < < b.& |.|.|.& & $ $ $ $ $ $ $ (   R . $ ",
"z v T _ 5 / / / / C C C   $ = l 5 a a % % % ).    &           j.j.j.j.o C   j.j.j.j.h h h h / Y Y & & $ $ $ $ $ $ $ $ k k.k.k.$ ",
"  ) _ _ 5 G / / C C   C   +.F p w % % % % < H     &     $ $ j.l.m.n.o.j.j.j.p.q.r.s.j.h h h / & & & $ $ $ ;.;.t.t.o $ k , , , }.",
"      & & & & C C C C C $   F p w % % % *.J H     &   $ $ j.u.v.w.x.y.z.A.B.C.D.E.F.G.j.h < & & &   $ H.q t.I.J.J.+.$ + K.Y Y 0 ",
"$ [ g a & & C C C * * C h.  & p % % & & ).J H H & & $ $ j.L.M.N.O.P.Q.R.S.T.U.V.W.X.Y.Z.j.& &     $ $ H.q I.I.J.J.+.$ R Q Q Y 0 ",
"$ $ $ $ $ $ % % ~ * * C h.    & N < ^ u ).J J & & _ `.j. +.+++@+#+$+%+&+*+=+j.j.-+;+>+,+j.        $ $ H.I.I.I.J.'++.$ h h h 3.& ",
"$ `.)+!+~+~+~+2.% &   } C C C   & < ^ u & & & &   _ `.j.{+]+^+/+(+j.j._+:+j.h & j.<+[+}+j.} . M   $ $ :.=.'+d.,.$ $ % h h h ).& ",
"$ _ |+|+|+|+1+2.% &   ( (     C                   B b j.2+3+4+5+j.u h j.j.h & & j.6+7+8+j.} . M   q q $ q W W :.$ % % h h h < & ",
"% _ |+|+|+|+1+2.% &     $ $ $ C $ $ $             [ . j.9+0+a+b+c+j.C C ~ < & j.d+e+f+j.$ $ $     $ q q q $ $ $ $ % h h h h & & ",
"% % |+|+|+|+1+% & &   $ $ $ $ $ $ $ $ $ $ $ $ $     . < j.g+h+i+j+k+j.j.~ & j.l+m+n+o+j.$ $ % % & $ $ % q 9 < < < h h h h h % % ",
"% % % % % % % & _ `.`.B p+$ $ $ $ $ $ $ q+j l #.[   & h < j.r+s+t+u+v+w+j.% $ j.x+y+z+j.$ | 6 ^ ^ & % % x 9 < < < h h & h h $ $ ",
"% % & & & &   +.+.+.q B q $ $ $ q q q $ & j l j D [ x N & & j.A+B+C+D+E+F+j.`.`.j.G+H+I+j.| ^ |.|.h & % x q < < < h & h h % $ $ ",
"& & & &     $ +.+.+.q B q $ $ $ $ $ q `.+.V 9.V J+[ + }.0 j.K+L+M+N+O+P+Q+R+j.j.j.S+T+U+j.| u M J / & & & q & & & & % % % $ $ $ ",
"& & &       $ +.+.q q $ q $ $ $ $ $ $ `.+.W W _._.$ b.*.*.j.V+W+X+Y+Z+`+ @.@+@@@#@B.$@%@j.% J H H / & & & & & & & & % % $ C C $ ",
"$         $ $ Z Z Z Z %.q ' n $ $ T T +._.W W W 4 % b./ / j.&@*@=@-@;@>@,@'@)@!@~@{@]@j.% u H H H & & &           C C C C ; $ $ ",
"$ $       $ $ Z Z Z Z %.q q q T o Z Z Z @.$ Z Z o x b./ j.^@/@(@_@:@<@j.[@}@|@1@2@3@4@j.& M H H & & &             C   K.K.k ^.$ ",
"$ $ $     $ $ $ $ %.%.%.o q q T q Z Z Z @.$ $ $ % | ~ j.5@6@7@8@9@j.j.C j.j.0@a@b@j.j.^ |.    & & & $ $ $ $ $ $ 9 C *.*.*.*.^.^.",
"$ $ $ $   $ $ $ % % % % $ q $ T q Z Z Z m { ; % . h j.c@d@e@f@g@j.}   C & 1 j.j.j.0 |.& & & & & & $ $ $ $ $ $ $ $ C *.*.*.# # # ",
"$ 5 @.@.@._ j % % % % % % $ $ $ $ $ $ $ $ { | 1 6 j.h@i@j@k@l@j.h.}     & h ).).....& & & & &   :.:.+.S S S S @.'.$ C C C i.m@m@",
"+.)+@.@.@._ j x q x % % % % $ $ $ $ $ $ $ * | $.j.n@o@p@q@r@j.C C f       & & & & & & & &     :.:.:.q q q S S @.'.$ $ E C , m@m@",
"+.9.@.m m }   . q q q % % % % % & & % % % % < j.s@t@u@v@w@j.  C C ).}.}.f @ ^ ^ ^ ^.k.      $ :.:.:.q S S :._.:.+.$ $ f f C R R ",
"+.+.+.@ < < &   & < < < < < < < < < < < < < j.x@y@z@A@B@j.C C C   $ $ $ $ $ $ $ $ $ f f   $ $ Z Z q o T $ T Z Z Z $ $ 9 }.C *.*.",
"+.+.F T '.5 C@&   & < < < < < < < < < < < j.D@E@F@G@H@I@j.C C   $ $ $ $ $ $ $ B B B ( u u % % % q q $ @.@.Z Z S S $ $ 9 }.C C |.",
"K K F T _ b C@&   & & & & & < < < < < < j.J@K@>+F@L@M@A@N@j.  $ $ $ $ $ $ $ $ %.%.%.h h h % % x q x % +.+.+.9.o o $ [ [ & 0 C C ",
"g 4 %.%.5 b O@* &   & & & & & % % % % j.P@Q@R@S@T@U@V@W@X@Y@j.$ $ $ $ S S S T ` %.%.h h h % % N q N % |+_._.8.$ $ $ Z@Z@( ~ |.C ",
"x + + < ).).).N C       & & & & & & j.`@ #.#+#@###$#%#&#*#=#j.$ $ $ $ o o o T ` %.%.h h h % & < q 0 0 a.a.-#) }.9 1 / / )...|.C ",
"x + + < ).).).N C             & & j.;#>#,#'#)#!#~#.@{#]#j.j.C C N * h r r r ^#/#g g h h h & & < < 0 0 a.a.a.b / / / / / )...|.C ",
"  + ^.( ).).).C C S (#(#$ $ $     j._#:#<#[#}#|#1#2#3#j.$ % 0 C 0 9 h r r r h h & h h h & & & & q q q q / / / / / / / / )...& & ",
"    * e C ^ C C C 4 4 4 $ $ $ $     j.4#5#6#7#8#9#0#j.$ $ % $.C $.& & + + + h h h h h & & & & & & < < ~ 0 $.$.$.$.$.$.$.& & & & ",
"      e C C C C C ' ' ' ' $ $ % % & & j.j.j.j.a#b#c#j.% 9 0 6 C 6 & & & 0 $.d#^ ^ h & & & &       & < ~ 0 $.$.$.< & & & & % % % ",
"$ $     C C C % `.' ' ' ' ' a x x x & &     $ j.e#f#j.$.9 0 C C 6 &   & & & & & & & & & &           & & & & & g#h#h#& & 1 % $ $ ",
"$ C C C ;   ; [ [ `.' +.+.+.o < u u C C &     i#j.j.6 6 d#d#C d#& &   . b.b.& & & & &       $ $ $ ; + 9 C C   # k.k.  }.}.}.$ $ ",
"$ $ $ C C + + ( + + ' +.+.+.o < h & h C &       f f 6 6 C C C d#& &   . - - - -       $ $ $ $ $ $ ; + #.c.C           . . }.$ $ ",
"$ $ $ C C C + R 9 }.}.] T & T < h *.*.C % & C       6 6 C d#d#& &     , - - - - x f c $ $ $ $ $ $ $ $ j p+#.C       ( ( ^.}.$ $ ",
"$ $ $ % C C C k.).K.K.g * { }.9 |.|.J C ^ &   C C C C & % % % | j 5 5 5 g f 7 7 x 2 c $ '.) ) ) $ $ $ @.@.#.C C     k ( ^.}.$ $ ",
"; ; % % C C C C O@~.m@m@m@k.k.9 |.j#H C / &   w w C   K C K $ ; j 5 5 5 C C K.( C ( $ $ q q ) ) ) ) $ @.@.#.#.C k   k ( ^.$ $ $ ",
"+ + < % ~ ~ C C & ~.~.k#t l#k.k.*.|.H C / & C@C@C C $ 8.8.8.$ ; j 5 5 5 g f K.*.C ( [ $ q ) ) ) ) ) `.5 e & ^.C k ( ( ^.$ $ $ $ ",
"+ 9 ~ ~ ~ ~ C C & ] /#C@~.O@, K.Y M J C / m#C@C@C   $ 8.8.8.$ $ $ $ & f f f K.*.C *.h % & ) ) ) ) ) `.5 9 f ^.C h 1 1 % $ $ $ $ ",
"+ 9 ~ ~ ~ ~ C C & T p+O ~.O@, Y Y M J C & m#w w C $ $ +.+.-#] + + + + k.k.k.k.M C C & % % $ $ o o o `.5 9 f ^ u & ! % 1 6 ^.^.^."};
