/* XPM */
static char * postava_truhla_xpm[] = {
"64 64 490 2",
"  	c #665940",
". 	c #736148",
"+ 	c #756349",
"@ 	c #726148",
"# 	c #6C5D44",
"$ 	c #7B674D",
"% 	c #78644B",
"& 	c #544935",
"* 	c #77644B",
"= 	c #7C684E",
"- 	c #78654B",
"; 	c #79654B",
"> 	c #7A654B",
", 	c #6D5E45",
"' 	c #846E52",
") 	c #846F53",
"! 	c #77634A",
"~ 	c #715F47",
"{ 	c #7A674D",
"] 	c #7E6A4F",
"^ 	c #6F5E45",
"/ 	c #6C5C44",
"( 	c #716047",
"_ 	c #806B50",
": 	c #816B51",
"< 	c #726047",
"[ 	c #7A664C",
"} 	c #7F694F",
"| 	c #766249",
"1 	c #756249",
"2 	c #7D684E",
"3 	c #6F5F45",
"4 	c #867054",
"5 	c #7F6B50",
"6 	c #705E46",
"7 	c #77644A",
"8 	c #7D6A4E",
"9 	c #746249",
"0 	c #715F46",
"a 	c #7F6A4F",
"b 	c #7F6B4F",
"c 	c #7C674D",
"d 	c #826C52",
"e 	c #766349",
"f 	c #736248",
"g 	c #76644A",
"h 	c #6D5D45",
"i 	c #7E6A4E",
"j 	c #7D694E",
"k 	c #706046",
"l 	c #7E694F",
"m 	c #816C50",
"n 	c #816C51",
"o 	c #846E53",
"p 	c #826D52",
"q 	c #54803E",
"r 	c #7E6B4F",
"s 	c #7E694E",
"t 	c #76654A",
"u 	c #6E5D45",
"v 	c #826C51",
"w 	c #79654C",
"x 	c #76634A",
"y 	c #736149",
"z 	c #7B674E",
"A 	c #766549",
"B 	c #7F6A50",
"C 	c #40612F",
"D 	c #7A674C",
"E 	c #6E5E45",
"F 	c #857053",
"G 	c #77654A",
"H 	c #675940",
"I 	c #655840",
"J 	c #685941",
"K 	c #887254",
"L 	c #76624A",
"M 	c #685A41",
"N 	c #726048",
"O 	c #79674C",
"P 	c #836F53",
"Q 	c #695B42",
"R 	c #706047",
"S 	c #856F54",
"T 	c #836D52",
"U 	c #806B51",
"V 	c #8A7357",
"W 	c #897356",
"X 	c #7C674E",
"Y 	c #6A5B42",
"Z 	c #877154",
"` 	c #857054",
" .	c #DBDBE2",
"..	c #8A8A8F",
"+.	c #6B5B43",
"@.	c #887255",
"#.	c #705F46",
"$.	c #856F53",
"%.	c #B6B6B6",
"&.	c #6D5D44",
"*.	c #8E7759",
"=.	c #8F785A",
"-.	c #90785A",
";.	c #8F7859",
">.	c #8C7558",
",.	c #806C50",
"'.	c #6B5C43",
").	c #53535A",
"!.	c #65553F",
"~.	c #826D51",
"{.	c #8B7458",
"].	c #8B7457",
"^.	c #897256",
"/.	c #816D51",
"(.	c #685940",
"_.	c #EFC193",
":.	c #60523C",
"<.	c #746248",
"[.	c #695A42",
"}.	c #665840",
"|.	c #301C19",
"1.	c #836D53",
"2.	c #BC8356",
"3.	c #633724",
"4.	c #6A5B43",
"5.	c #806C51",
"6.	c #62533D",
"7.	c #61523D",
"8.	c #5F513C",
"9.	c #887256",
"0.	c #8A7457",
"a.	c #7B684E",
"b.	c #4CB528",
"c.	c #766449",
"d.	c #7B694E",
"e.	c #8D7659",
"f.	c #6A5C43",
"g.	c #8B7557",
"h.	c #61533D",
"i.	c #806A50",
"j.	c #524238",
"k.	c #AB9A6E",
"l.	c #6C5C43",
"m.	c #725F47",
"n.	c #766A55",
"o.	c #6F5F46",
"p.	c #91795B",
"q.	c #FFFFFF",
"r.	c #90795A",
"s.	c #917A5C",
"t.	c #917A5B",
"u.	c #6D5E44",
"v.	c #C0B49D",
"w.	c #C0B49A",
"x.	c #BBAE91",
"y.	c #BCB097",
"z.	c #A67C4A",
"A.	c #7B5D3C",
"B.	c #D6CFB8",
"C.	c #C4B79E",
"D.	c #C6B9A1",
"E.	c #8F7759",
"F.	c #846D52",
"G.	c #8A7356",
"H.	c #877054",
"I.	c #877055",
"J.	c #9B917E",
"K.	c #9A8E7D",
"L.	c #8F4F34",
"M.	c #BD935A",
"N.	c #8B7045",
"O.	c #DED6C2",
"P.	c #CDBEA8",
"Q.	c #CABEA7",
"R.	c #887155",
"S.	c #877155",
"T.	c #574939",
"U.	c #5C4B3A",
"V.	c #5F4D3D",
"W.	c #65543E",
"X.	c #7D5833",
"Y.	c #8E673A",
"Z.	c #4B2F25",
"`.	c #673D31",
" +	c #C8BCB4",
".+	c #C49C61",
"++	c #C0975B",
"@+	c #9D7E54",
"#+	c #E5DDC7",
"$+	c #CEC2A8",
"%+	c #CEC0A8",
"&+	c #564937",
"*+	c #584839",
"=+	c #5E4A3A",
"-+	c #64513D",
";+	c #68553F",
">+	c #835E33",
",+	c #926B3E",
"'+	c #C7A365",
")+	c #C49D61",
"!+	c #BE955C",
"~+	c #A38155",
"{+	c #EAE2CF",
"]+	c #D0C4AC",
"^+	c #DFD6BB",
"/+	c #574637",
"(+	c #5A4B39",
"_+	c #604C3D",
":+	c #65533E",
"<+	c #6B5744",
"[+	c #B0A48B",
"}+	c #B5A88F",
"|+	c #8F6739",
"1+	c #8B6B1C",
"2+	c #C5A164",
"3+	c #C2975D",
"4+	c #957651",
"5+	c #EEE7D1",
"6+	c #E9E1C9",
"7+	c #E7DEC6",
"8+	c #7D694F",
"9+	c #564637",
"0+	c #5D4937",
"a+	c #422F1C",
"b+	c #4C311A",
"c+	c #CDBEAA",
"d+	c #B6A98F",
"e+	c #F1C146",
"f+	c #C2975F",
"g+	c #AF844D",
"h+	c #846541",
"i+	c #EDE6D1",
"j+	c #E9E1CD",
"k+	c #E6DCC7",
"l+	c #584837",
"m+	c #5E4B37",
"n+	c #43301A",
"o+	c #C2955E",
"p+	c #AD804D",
"q+	c #84643F",
"r+	c #E9E2CD",
"s+	c #E6DCC6",
"t+	c #5A4734",
"u+	c #5E4A38",
"v+	c #432E17",
"w+	c #5C4024",
"x+	c #5A440D",
"y+	c #34343A",
"z+	c #B48955",
"A+	c #866641",
"B+	c #EEE6D1",
"C+	c #E9E2CA",
"D+	c #D6C9B4",
"E+	c #584534",
"F+	c #604C38",
"G+	c #422C14",
"H+	c #5D4024",
"I+	c #007DFF",
"J+	c #A17644",
"K+	c #D1C5AA",
"L+	c #D2C5AC",
"M+	c #EBE4CF",
"N+	c #D0C3AD",
"O+	c #D0C2AC",
"P+	c #5A4736",
"Q+	c #604C39",
"R+	c #68543C",
"S+	c #442C14",
"T+	c #473115",
"U+	c #674728",
"V+	c #CDC0A1",
"W+	c #D0C2A4",
"X+	c #D1C3A9",
"Y+	c #CEC2A9",
"Z+	c #D0C2AA",
"`+	c #CABDA4",
" @	c #5B4633",
".@	c #624C38",
"+@	c #68513C",
"@@	c #6F5840",
"#@	c #746047",
"$@	c #54391E",
"%@	c #5D442B",
"&@	c #6B4726",
"*@	c #6A4623",
"=@	c #CEC0A3",
"-@	c #CFC2A5",
";@	c #CEBEA5",
">@	c #CABD9E",
",@	c #C8BC9E",
"'@	c #726147",
")@	c #5C4634",
"!@	c #614C38",
"~@	c #67503B",
"{@	c #705840",
"]@	c #755E44",
"^@	c #7B654A",
"/@	c #846A4C",
"(@	c #654A30",
"_@	c #684C31",
":@	c #E1D8C0",
"<@	c #C7BB9B",
"[@	c #C6B998",
"}@	c #5B4533",
"|@	c #5E4935",
"1@	c #45301B",
"2@	c #5C3E23",
"3@	c #765F42",
"4@	c #7D6447",
"5@	c #7F684B",
"6@	c #876A4D",
"7@	c #8A6F50",
"8@	c #574431",
"9@	c #5F4A35",
"0@	c #422814",
"a@	c #5F4024",
"b@	c #5E3E22",
"c@	c #613F23",
"d@	c #7F6649",
"e@	c #866A49",
"f@	c #896E50",
"g@	c #F1F1F1",
"h@	c #6C5D43",
"i@	c #564330",
"j@	c #5D4834",
"k@	c #422710",
"l@	c #5E4024",
"m@	c #644425",
"n@	c #664527",
"o@	c #624222",
"p@	c #664223",
"q@	c #846A4A",
"r@	c #B9A686",
"s@	c #55412B",
"t@	c #5D4430",
"u@	c #41240E",
"v@	c #5F4124",
"w@	c #664526",
"x@	c #674527",
"y@	c #694827",
"z@	c #684626",
"A@	c #845D33",
"B@	c #885F31",
"C@	c #B09575",
"D@	c #523F2B",
"E@	c #584430",
"F@	c #41230C",
"G@	c #604326",
"H@	c #654628",
"I@	c #69472A",
"J@	c #684727",
"K@	c #B09B7D",
"L@	c #7E5830",
"M@	c #BA8E55",
"N@	c #976A3A",
"O@	c #AA814A",
"P@	c #B88A55",
"Q@	c #79664C",
"R@	c #503D2A",
"S@	c #55412D",
"T@	c #432B10",
"U@	c #604226",
"V@	c #654627",
"W@	c #674727",
"X@	c #664627",
"Y@	c #654526",
"Z@	c #AA947A",
"`@	c #7C542F",
" #	c #B78D53",
".#	c #B89157",
"+#	c #B89358",
"@#	c #BD9E65",
"##	c #A97E4B",
"$#	c #B18752",
"%#	c #A87F4B",
"&#	c #85603B",
"*#	c #C5B799",
"=#	c #503A26",
"-#	c #53402B",
";#	c #57432F",
">#	c #462E15",
",#	c #482E15",
"'#	c #614125",
")#	c #644426",
"!#	c #624324",
"~#	c #A68E75",
"{#	c #75512C",
"]#	c #B48B53",
"^#	c #B68F56",
"/#	c #B48A54",
"(#	c #BA9760",
"_#	c #9F7846",
":#	c #946B3E",
"<#	c #8D683B",
"[#	c #7B5B3B",
"}#	c #9E8A6F",
"|#	c #9A866B",
"1#	c #77654B",
"2#	c #51402B",
"3#	c #55432D",
"4#	c #5B4430",
"5#	c #5D4734",
"6#	c #4C331A",
"7#	c #614224",
"8#	c #604023",
"9#	c #9E8871",
"0#	c #A18972",
"a#	c #AA7F4C",
"b#	c #AC8350",
"c#	c #9F7845",
"d#	c #AD8651",
"e#	c #8A6438",
"f#	c #BBAE8F",
"g#	c #B9AA8A",
"h#	c #B8A68A",
"i#	c #9B8B71",
"j#	c #968367",
"k#	c #967C61",
"l#	c #76644B",
"m#	c #53422C",
"n#	c #56422F",
"o#	c #5D4631",
"p#	c #5E4531",
"q#	c #4D361C",
"r#	c #9A846A",
"s#	c #99866B",
"t#	c #805831",
"u#	c #936A3D",
"v#	c #8F683C",
"w#	c #BBAF91",
"x#	c #BCB194",
"y#	c #BAA98B",
"z#	c #A48D73",
"A#	c #9E8B6B",
"B#	c #978467",
"C#	c #947E66",
"D#	c #836E53",
"E#	c #867154",
"F#	c #584330",
"G#	c #5F4633",
"H#	c #624938",
"I#	c #938067",
"J#	c #917E64",
"K#	c #B8AA8E",
"L#	c #B8AC91",
"M#	c #B8AD91",
"N#	c #9D856F",
"O#	c #978469",
"P#	c #968369",
"Q#	c #9A856E",
"R#	c #978369",
"S#	c #7F6950",
"T#	c #5A4531",
"U#	c #5D4733",
"V#	c #8A7A60",
"W#	c #8B7961",
"X#	c #937C64",
"Y#	c #927D62",
"Z#	c #917D62",
"`#	c #947F65",
" $	c #927C62",
".$	c #917E65",
"+$	c #604834",
"@$	c #97846B",
"#$	c #85735C",
"$$	c #87725B",
"%$	c #8E7A5F",
"&$	c #8B765D",
"*$	c #87755C",
"=$	c #8A765E",
"-$	c #8E7860",
";$	c #7E6C56",
">$	c #806B55",
",$	c #7F7873",
"'$	c #6F5E46",
")$	c #9C604C",
"!$	c #88735C",
"~$	c #796651",
"{$	c #7A6650",
"]$	c #5F513B",
"^$	c #64553F",
"/$	c #806E58",
"($	c #74604C",
"_$	c #7C694E",
":$	c #78664B",
"<$	c #685A42",
"[$	c #76654B",
"}$	c #77664B",
"|$	c #7A684D",
"1$	c #736048",
"      . + @ # $ $ $ $ $ $ $ % % % % & * * * * *   $ $ $ $ $ $ = - & . . ; > $ $ $ $ % % % . . & &     , = $ $ $ $ $ $ $ $ % % & ",
"$ $ $ . .     $ $ $ $ $ $ ' & ) ) ! ! ~ * * +       { { { $ % ] ] ] ^ / ( + + $ $ $ % _ : ] ] < &     [ } $ $ $ $ $ $ $ $ | 1 1 ",
"$ $ $ 2 @ 3 $ $ % % % % % ' 4 4 4 ) 5 & 6 7 +         [ % + < 5 8 8 ^ & ( 1 9 ~ ~ 0 0 a 5 5 5 b &   * } } $ $ $ $ $ $ $ $ | 0 0 ",
"$ $ $ c c 3 $ % % % % % % _ 4 4 ) d = e & f f $ $ $ { [ g ( h i i i & &   1 ~ ~ ~ 0 0 j 5 5 5 b & k * l $ m m m n o ) ) ) | 0 0 ",
"' ' ' @ @ @ $ % % % % % % 5 4 4 o p = $ &   q q q q $ [ g ( h b b & &   &   & & & & 0 . r 5 5 & & k . 2 $ s s s n o ) ) ) t ~ u ",
"v ) ) o e e & w x y y % % z x x < g < A & q q $ v v v B & g + n n C C       & & % % % | | | & & & , , [ @ D D s l : n n i 9 E h ",
"v ) ) F F G &   - @ < < < < 0 6 H I J & & q $ $ o o o B = $ $ K ) C C         % & % % L 1 9 = & & M M   N < < < 0 6 $ $ O 9 E h ",
"v ) ) P P & & Q Q   & & & < 0 6 H I & &   R $ S S S o B = $ $ T U U C &     $ $ & B B $ 1 $ C C & &     & < < < 0 6 u h / / / & ",
"% ^ 5 P & & & Q Q     & & & & & & & &     q q S S V W o o $ $ 5 ] ] C &   $ $ $ & T T X 1 $ C C { &     & & & < 0 6 u h / / & & ",
"^ ^ Y 5 & &   Z 4 ` $ $ $ % % % & &       $ q q S V  . . . . . . ...C &   $ $ 4 4 4 T X % s G C 6 &       & & & & & & & & & & & ",
"^ +.Y       q q q q q q & $ $ $ C C       $ $ q S  . . . . . . .....C &   $ $ 4 4 4 T % % . h C u &     $ $ $ $ $ $ $ $ $ $ $   ",
"h +.&     $ q 4 4 ` o @.@.@.S % % C C       $ q  . . . . . . ..... . . .  $ $ T T T % #.#./ C C u &   $ $ 4 Z Z Z 4 4 $ $ $ $ [ ",
"& &       q q $.$.$.o @.@.@.d a % % < & C     %. . . . . . .%. . . . . . .; < 1 1 1 0 #.&.C C h & & $ 4 *.=.-.-.& & ;.>.,.$ $ x ",
"  7 7 7 '.$ $ $ $ T T @.@.@.d a % % < < C & ).%.%.%. . . . . . . . . .%.....< ~ 0 0 0 h &.C / & & % $ 4 *.=.-.-.-.-.;.>.,.$ $ + ",
"+ 7 7 7 '.$ $ $ $ $ $ 2 2 a a a % % ^ ^ C & ).).%.%.%.%. . . . . . . . .%...7 ~ 0 0 & h &.C & & & $ $ 4 *.=.-.-.-.-.;.>.,.f #.#.",
"+ 7 7     $ $ $ $ = w w % % % % % % ^ &.C &   ).%.%.%.%.%. . . . . . . . ...!.[ % % C C C &       % 9 ~.W {.>.].V ^.$ [ < &.&.6 ",
"            $ $ T /.] w L L % % % % u (.(.& $ ).%.%.%....._._._._. . . . ...3 :.& & & & &       C % <.h &.&.^ % % < < [.Y / &.6 ",
"$ $ $ $ $ $ $ S 4 o U + ^ < < 0 / }.}.  & & |....._....._._._._._._...). ...Q Q   $ $ $ $ $     C % 0 &./ +.h h h 0 [.[.Q / &.6 ",
"$ $ $ $ $ $ % d 1.& U 9 h [.J H   }.}.& &   |....._.....2.3.3._._.3...).).).    $ $ $ $ $ $ $ $ $ C 0 / '.4.Q [.[.[.[.[.Q &.#.& ",
"$ $ $ @.@.$.; n 5.b & 6.6.7.8.& & & & &     |...|......._. .3._._. .).).+ &   o 9.W 0.0.4 5 $ [ [ C C C < 4.& [.[.[.[./ / & & & ",
"$ $ $ @.@.$.; 5 = a.< E E , #               |.|.|.|.|._._. .b._._. .).+ c.&   ) ^.*.*.*.4 5 % < < h < C & & & & h &./ / & & & & ",
"$ $ $ @.$.$.5 T x e h E E     $ $ $ $ $       & |.|.|.2._._._._._._.).z d.& $ ) e.*.*.*.4 = % < < / 6 C       & & & & & C C & $ ",
"% % % T & T 5 a / / / C f.  $ $ $ $ $ $ $ & & & & |.3.3.2._._._._.& (.d.&   $ ) e.*.*.*.S % % < / '.^ &   C C C C C C C   C C C ",
"% % % : : : 5 $ / / / C   $ $ $ $ $ $ $ % x #.& & & |.|.2.2.2.3.'.& & &     $ ) e.e.g.2 2 % < [.[.[.h h.c X X l i.B l Y   $ $ C ",
"% % % % % % < / / / C C   & $ _ ~.~.~.$ % x ^ M & j.k.k.k._._.2.k.j.&       $ $ T o o [ % < & [.[.[.h h.c X X l i.B l Y   x $ $ ",
"% v v v % < < l.l.l.C C   $ $ _ ~.~.~.$ % x /   j.k.k.k.k.k._._.2.k.j.Z     [ x x % % < < m.& [.[.[.& & $ $ $ $ $ $ $ (   R . $ ",
"z v T _ 5 / / / / C C C   $ = l 5 a a % % % '.j.k.k.k.k.k.k.k.n.n.k.k.j.C     . ~ u h h h h / Y Y & & $ $ $ $ $ $ $ $ k o.o.o.$ ",
"  ) _ _ 5 G / / C C   C   @.F p w % % % % < n.k.k.k.k.j.k.k.k.k.k.k.k.j.C C   & ~ u h h h h / & & & $ $ $ -.-.p.p.o $ k , , , <.",
"      & & & & C C C C C $   F p w % % % j.j.n.n.k.k.k.j.n.k.k.k.k.k.k.j.q.q.q.q.& u h h h < & & &   $ r.q p.s.t.t.@.$ + u.Y Y 0 ",
"$ [ g a & & C C C * * C i.  & p % % & & j.k.k.k.n.k.j.|.|.n.k.k.k.k.k.|.v.w.x.y.q.& & & & & &     $ $ r.q s.s.t.t.@.$ R Q Q Y 0 ",
"$ $ $ $ $ $ % % ~ * * C i.    & N < q.q.j.j.k.k.k.j.|.|.|.j.j.n.n.n.|.|.z.A.B.C.D.q.              $ $ r.s.s.s.t.E.@.$ h h h 4.& ",
"$ F.G.H.I.I.I.1.% &   } C C C   q.q.J.K.j.2._._.L.q.|.|.|.j.n.n.n.n.|.|.|.M.N.O.P.Q.q.c } } . M   $ $ ^.*.E.e.>.$ $ % h h h '.& ",
"$ _ R.R.R.R.S.1.% &   ( (     q.T.U.V.W.L._._._.L.X.Y.Z.Z.`.`.`. + +`.|.|..+++@+#+$+%+q.} } . M   q q $ q W W ^.$ % % h h h < & ",
"% _ R.R.R.R.S.1.% &     $ $ q.&+*+=+-+;+L._._.2.L.>+,+Z.Z.`.`.`. +`.`.|.|.'+)+!+~+{+]+^+q.$ $     $ q q q $ $ $ $ % h h h h & & ",
"% % R.R.R.R.S.% & &   $ $ $ q./+(+_+:+<+L._._.L.[+}+|+1+1+`.`.`. + +`.j.|.|.2+3+4+5+6+7+q.$ % % & $ $ % q 9 < < < h h h h h % % ",
"% % % % % % % & _ F.F.B 8+$ q.9+0+a+b+1+1+_._.L.c+d+1+e+1+n.n.n.n.n.n.n.|.|.|.f+g+h+i+j+k+q.6 ^ ^ & % % x 9 < < < h h & h h $ $ ",
"% % & & & &   @.@.@.q B q $ q.l+m+n+1+e+e+_._._._.1+e+e+1+n.n.n.n.n.n.n.|.|.|.o+p+q+i+r+s+q.^ [.[.h & % x q < < < h & h h % $ $ ",
"& & & &     $ @.@.@.q B q $ q.t+u+v+w+1+e+_._._._.x+e+e+y+y+n.n.n.n.n.n.|.|.|.z+g+A+B+C+D+q.u M J / & & & q & & & & % % % $ $ $ ",
"& & &       $ @.@.q q $ q $ q.E+F+G+H+1+1+_._._.x+x+I+I+....y+y+y+j.j.j.|.|.|.J+K+L+M+N+O+q.J H H / & & & & & & & & % % $ C C $ ",
"$         $ $ Z Z Z Z $.q ' q.P+Q+R+S+T+U+L.L.L.x+x+I+I+..........y+y+y+|.V+W+W+X+Y+j+Z+`+q.H H H & & &           C C C C ; $ $ ",
"$ $       $ $ Z Z Z Z $.q q q. @.@+@@@#@$@%@&@*@1+e+e+1+).).)...........y+y+y+=@-@;@k+>@,@q.H H & & &             C   u.u.k '@$ ",
"$ $ $     $ $ $ $ $.$.$.o q q.)@!@~@{@]@^@/@(@_@1+e+e+1+).).).).).).......%.%.).).).:@<@[@q.  & & & $ $ $ $ $ $ 9 C &.&.&.&.'@'@",
"$ $ $ $   $ $ $ % % % % $ q q.}@|@1@2@3@4@5@6@7@1+e+1+1+y+y+y+).).).).).).%.%.%.%.%.).).).q.& & & $ $ $ $ $ $ $ $ C &.&.&.# # # ",
"$ 5 ~.~.~._ j % % % % % % $ q.8@9@0@a@b@c@d@e@f@1+1+1+`.`.|.|.y+y+y+).).).).)...%.%.%.g@g@......^.^.@.S S S S ~.,.$ C C C l.h@h@",
"@.G.~.~.~._ j x q x % % % % q.i@j@k@l@m@n@o@p@q@|.`.`.`.|.r@|.Z.Z.Z.y+y+y+).).).).)...g@g@g@g@g@....q q q S S ~.,.$ $ E C , h@h@",
"@.0.~.m m }   . q q q % % % q.s@t@u@v@w@x@y@z@|.Z.`.`.`.|.A@|.Z.Z.Z.|.B@C@y+y+y+).).).).)...g@g@g@g@....S ^.].^.@.$ $ f f C R R ",
"@.@.@.@ < < &   & < < < < < q.D@E@F@G@H@I@U+J@|.`.`.`.|.K@L@|.Z.Z.Z.|.M@N@|+O@P@y+y+y+).).).).)...g@g@....T Z Z Z $ $ 9 <.C &.&.",
"@.@.F T ,.5 Q@&   & < < < < q.R@S@T@U@V@W@X@Y@|.`.`.`.|.Z@`@|.Z.Z.|. #.#+#@###$#%#&#*#y+y+y+).).)...g@g@..Z Z S S $ $ 9 <.C C [.",
"K K F T _ b Q@&   & & & & & q.=#-#;#>#,#'#)#!#|.`.`.Z.|.~#{#Z.Z.Z.|.]#^#/#(#_#:#<#[#x.}#|#q.y+y+y+y+y+..@.@.0.o o $ [ [ & 0 C C ",
"g 4 $.$.5 b 1#* &   & & & & & q.2#3#4#5#6#7#8#|.`.`.|.9#0#|.Z.Z.Z.|.a#b#c#d#e#f#g#h#i#j#k#q.% N q N % R.].].9.$ $ $ l#l#( ~ [.C ",
"x + + < '.'.'.N C       & & & & q.m#n#o#p#q#|.Z.`.`.|.r#s#|.Z.Z.|.t#u#v#w#x#y#z#A#B#C#q.q.% & < q 0 0 D#D#E#) <.9 1 / / '.+.[.C ",
"x + + < '.'.'.N C             & & q.q.F#G#H#|.Z.`.`.|.I#J#|.Z.Z.|.K#L#M#N#O#P#Q#R#q.q.h h & & < < 0 0 D#D#D#b / / / / / '.+.[.C ",
"  + '@( '.'.'.C C S S#S#$ $ $     &.+ q.T#U#|.`.`.Z.|.V#W#|.Z.Z.|.X#Y#Z#`# $.$q.q.h h h & & & & q q q q / / / / / / / / '.+.& & ",
"    * e C ^ C C C 4 4 4 $ $ $ $     + - q.+$|.`.`.|.@$#$$$|.Z.Z.|.%$&$*$=$q.q.h h h h & & & & & & < < ~ 0 #.#.#.#.#.#.#.& & & & ",
"      e C C C C C ' ' ' ' $ $ % % & & , C Z. + +`.|.-$;$>$|.Z.,$,$|.q.q.q.#.'$^ ^ h & & & &       & < ~ 0 #.#.#.< & & & & % % % ",
"$ $     C C C % F.' ' ' ' ' a x x x & & `.)$)$)$)$`.!$~${$|.`.`.`.`.|.& & & & & & & & & &           & & & & & ]$^$^$& & 1 % $ $ ",
"$ C C C ;   ; [ [ F.' @.@.@.o < u u C `.)$)$)$)$)$`./$($q.|.`.`.`.`.`.|.m.m.& & & & &       $ $ $ ; + 9 C C   # o.o.  <.<.<.$ $ ",
"$ $ $ C C + + ( + + ' @.@.@.o < h & h C &       f q.q.q.C C C '$& &   . - - - -       $ $ $ $ $ $ ; + _$d.C           . . <.$ $ ",
"$ $ $ C C C + R 9 <.<.] T & T < h &.&.C % & C       6 6 C '$'$& &     , - - - - x f c $ $ $ $ $ $ $ $ j 8+_$C       ( ( '@<.$ $ ",
"$ $ $ % C C C o.'.u.u.g * { <.9 [.[.J C ^ &   C C C C & % % % | j 5 5 5 g f 7 7 x 2 c $ ,.) ) ) $ $ $ ~.~._$C C     k ( '@<.$ $ ",
"; ; % % C C C C 1#:$h@h@h@o.o.9 [.<$H C / &   w w C   K C K $ ; j 5 5 5 C C u.( C ( $ $ q q ) ) ) ) $ ~.~._$_$C k   k ( '@$ $ $ ",
"+ + < % ~ ~ C C & :$:$[$t }$o.o.&.[.H C / & Q@Q@C C $ 9.9.9.$ ; j 5 5 5 g f u.&.C ( [ $ q ) ) ) ) ) F.5 e & '@C k ( ( '@$ $ $ $ ",
"+ 9 ~ ~ ~ ~ C C & ] |$Q@:$1#, u.Y M J C / 1$Q@Q@C   $ 9.9.9.$ $ $ $ & f f f u.&.C &.h % & ) ) ) ) ) F.5 9 f '@C h 1 1 % $ $ $ $ ",
"+ 9 ~ ~ ~ ~ C C & T 8+O :$1#, Y Y M J C & 1$w w C $ $ @.@.E#] + + + + o.o.o.o.M C C & % % $ $ o o o F.5 9 f ^ u & ! % 1 6 '@'@'@"};
